# xmcd
#
# Track frame offsets:
#	150
#	19551
#	39467
#	65637
#	84316
#	106512
#	129709
#	151171
#	169062
#	185344
#	209427
#	229653
#
# Disc length: 3389 seconds
#
# Revision: 3
# Processed by: cddbd v1.5.1PL0 Copyright (c) Steve Scherf et al.
# Submitted via: dBpowerAMP V4.0
#
DISCID=8f0d3b0c
DTITLE=Manzanita - Por Tu Ausencia
DYEAR=1998
DGENRE=Flamenquito
TTITLE0=Por Tu Ausencia
TTITLE1=La Quiero A Morir
TTITLE2=Ramito De Violetas
TTITLE3=No Me Lo Creo
TTITLE4=Para Que Vuelvas
TTITLE5=Margarita
TTITLE6=Por Que Me Amas - El Que No Llora No Ama
TTITLE7=Verde
TTITLE8=Dento De Tu Alma
TTITLE9=Gitana
TTITLE10=Que Sera De Mi
TTITLE11=Il Mio Canto Libero
EXTD=
EXTT0=
EXTT1=
EXTT2=
EXTT3=
EXTT4=
EXTT5=
EXTT6=
EXTT7=
EXTT8=
EXTT9=
EXTT10=
EXTT11=
PLAYORDER=
